<svg xmlns="http://www.w3.org/2000/svg" width="512" height="512" viewBox="0 0 512 512">
  <defs>
    <linearGradient id="g1" x1="0" x2="1" y1="0" y2="1">
      <stop offset="0" stop-color="#14f0d4"/>
      <stop offset="1" stop-color="#12b9c7"/>
    </linearGradient>
    <linearGradient id="g2" x1="0" x2="1" y1="0" y2="0">
      <stop offset="0" stop-color="#10d8c7"/>
      <stop offset="1" stop-color="#0fb0c3"/>
    </linearGradient>
  </defs>
  <path fill="#ffffff" d="M0 0h512v512H0z"/>
  <g fill="none" stroke="#2f2a8c" stroke-linecap="round" stroke-linejoin="round" stroke-width="18">
    <path d="M166 190c-22-24-35-55-35-88 0-22 6-43 17-61 32-1 64-2 96-2s64 1 96 2c11 18 17 39 17 61 0 33-13 64-35 88"/>
    <path d="M196 170c14-18 34-30 60-30s46 12 60 30"/>
    <path d="M186 212c-18 18-30 43-30 70 0 28 12 54 33 72"/>
    <path d="M326 212c18 18 30 43 30 70 0 28-12 54-33 72"/>
    <path d="M192 362c20 22 44 34 64 34s44-12 64-34"/>
    <path d="M174 402c32 22 61 32 82 32s50-10 82-32"/>
    <path d="M256 74c0 26-6 42-20 60 14 18 20 34 20 60 0-26 6-42 20-60-14-18-20-34-20-60z"/>
  </g>
  <g>
    <path fill="url(#g1)" d="M147 183c-27-28-42-65-42-104 0-20 4-40 12-58 30-8 67-10 139-10s109 2 139 10c8 18 12 38 12 58 0 39-15 76-42 104-63-9-110-10-109-10s46 1 109 10c-23 10-49 16-76 16-14 0-28-2-42-6-14 4-28 6-42 6-27 0-53-6-76-16z"/>
    <path fill="#ffffff" d="M256 180c-49 0-88 28-88 62 0 27 25 50 60 58-6-8-9-17-9-27 0-26 19-46 37-58 18 12 37 32 37 58 0 10-3 19-9 27 35-8 60-31 60-58 0-34-39-62-88-62z"/>
    <circle cx="224" cy="256" r="10" fill="#2f2a8c"/>
    <circle cx="288" cy="256" r="10" fill="#2f2a8c"/>
    <path fill="url(#g2)" d="M170 246c-10 12-16 26-16 41 0 35 30 66 77 82-10-12-16-27-16-44 0-29 17-52 33-67-23 8-53 2-78-12z"/>
    <path fill="url(#g2)" d="M342 246c10 12 16 26 16 41 0 35-30 66-77 82 10-12 16-27 16-44 0-29-17-52-33-67 23 8 53 2 78-12z"/>
    <path fill="url(#g1)" d="M206 314c-8 12-12 26-12 41 0 51 28 94 62 102 34-8 62-51 62-102 0-15-4-29-12-41-14 18-31 28-50 28s-36-10-50-28z"/>
  </g>
</svg>
